<svg width="24" height="24" viewBox="0 0 24 24" fill="none" xmlns="http://www.w3.org/2000/svg">
<path d="M12 0.625C5.72803 0.625 0.625 5.72803 0.625 12C0.625 18.272 5.72803 23.375 12 23.375C18.272 23.375 23.375 18.272 23.375 12C23.375 5.72803 18.272 0.625 12 0.625ZM12 2.375C17.3252 2.375 21.625 6.67481 21.625 12C21.625 17.3252 17.3252 21.625 12 21.625C6.67481 21.625 2.375 17.3252 2.375 12C2.375 6.67481 6.67481 2.375 12 2.375ZM8.69141 7.43359L7.43359 8.69141L10.7422 12L7.43359 15.3086L8.69141 16.5664L12 13.2578L15.3086 16.5664L16.5664 15.3086L13.2578 12L16.5664 8.69141L15.3086 7.43359L12 10.7422L8.69141 7.43359Z" fill="#626262"/>
</svg>
