<svg width="30" height="24" viewBox="0 0 30 24" fill="none" xmlns="http://www.w3.org/2000/svg">
                                    <path d="M3.75 0.75V4.17773L0.9375 7.92773V8.25C0.9375 9.79219 2.20781 11.0625 3.75 11.0625V23.25H26.25V11.0625C27.7922 11.0625 29.0625 9.79219 29.0625 8.25V7.92773L26.25 4.17773V0.75H3.75ZM5.625 2.625H24.375V3.5625H5.625V2.625ZM5.15625 5.4375H24.8438L27.0996 8.45508C26.9974 8.86102 26.6897 9.1875 26.25 9.1875C25.7297 9.1875 25.3125 8.77031 25.3125 8.25H23.4375C23.4375 8.77031 23.0203 9.1875 22.5 9.1875C21.9797 9.1875 21.5625 8.77031 21.5625 8.25H19.6875C19.6875 8.77031 19.2703 9.1875 18.75 9.1875C18.2297 9.1875 17.8125 8.77031 17.8125 8.25H15.9375C15.9375 8.77031 15.5203 9.1875 15 9.1875C14.4797 9.1875 14.0625 8.77031 14.0625 8.25H12.1875C12.1875 8.77031 11.7703 9.1875 11.25 9.1875C10.7297 9.1875 10.3125 8.77031 10.3125 8.25H8.4375C8.4375 8.77031 8.02031 9.1875 7.5 9.1875C6.97969 9.1875 6.5625 8.77031 6.5625 8.25H4.6875C4.6875 8.77031 4.27031 9.1875 3.75 9.1875C3.31031 9.1875 3.00258 8.86102 2.90039 8.45508L5.15625 5.4375ZM5.625 10.3301C6.12281 10.7801 6.78188 11.0625 7.5 11.0625C8.21812 11.0625 8.87719 10.7801 9.375 10.3301C9.87281 10.7801 10.5319 11.0625 11.25 11.0625C11.9681 11.0625 12.6272 10.7801 13.125 10.3301C13.6228 10.7801 14.2819 11.0625 15 11.0625C15.7181 11.0625 16.3772 10.7801 16.875 10.3301C17.3728 10.7801 18.0319 11.0625 18.75 11.0625C19.4681 11.0625 20.1272 10.7801 20.625 10.3301C21.1228 10.7801 21.7819 11.0625 22.5 11.0625C23.2181 11.0625 23.8772 10.7801 24.375 10.3301V16.6875H5.625V10.3301ZM5.625 18.5625H24.375V21.375H5.625V18.5625Z" fill="#74253A"></path>
                                </svg>