<svg width="24" height="24" viewBox="0 0 24 24" fill="none" xmlns="http://www.w3.org/2000/svg">
<path d="M12 0.75C5.79639 0.75 0.75 5.79639 0.75 12C0.75 18.2036 5.79639 23.25 12 23.25C18.2036 23.25 23.25 18.2036 23.25 12C23.25 5.79639 18.2036 0.75 12 0.75ZM12 2.625C17.1892 2.625 21.375 6.81079 21.375 12C21.375 17.1892 17.1892 21.375 12 21.375C6.81079 21.375 2.625 17.1892 2.625 12C2.625 6.81079 6.81079 2.625 12 2.625ZM11.0625 4.5V12.9375H17.625V11.0625H12.9375V4.5H11.0625Z" fill="#74253A"/>
</svg>
